<svg xmlns="http://www.w3.org/2000/svg" xmlns:xlink="http://www.w3.org/1999/xlink" width="815" height="815" viewBox="0 0 815 815">
  <defs>
    <clipPath id="clip-path">
      <circle id="Elipse_1" data-name="Elipse 1" cx="407.5" cy="407.5" r="407.5" transform="translate(145 82)" fill="#02b925"/>
    </clipPath>
  </defs>
  <g id="Grupo_de_m치scara_1" data-name="Grupo de m치scara 1" transform="translate(-145 -82)" clip-path="url(#clip-path)">
    <g id="Ret칙ngulo_1" data-name="Ret칙ngulo 1" transform="translate(74 46)" fill="#10bc66" stroke="#707070" stroke-width="1">
      <rect width="979" height="1051" stroke="none"/>
      <rect x="0.5" y="0.5" width="978" height="1050" fill="none"/>
    </g>
    <path id="Caminho_1" data-name="Caminho 1" d="M0,0C4.663.243,362.09,184.149,362.09,184.149L307,379,3.079,212.433S-4.663-.243,0,0Z" transform="translate(630 477)" fill="#0caa5b"/>
    <path id="Caminho_2" data-name="Caminho 2" d="M0,0C4.663.243,362.09,184.149,362.09,184.149l-49.144,80.709L0,88.925S-4.663-.243,0,0Z" transform="translate(630 689)" fill="#0a9d53"/>
    <path id="Caminho_4" data-name="Caminho 4" d="M137.2,184.149c4.663.243,204.07,104.9,204.07,104.9L307,379-27.183,194.926S132.538,183.906,137.2,184.149Z" transform="translate(635 269)" fill="#12a059"/>
    <path id="Caminho_5" data-name="Caminho 5" d="M222.737,169.309c4.663.243,119.766,93.346,119.766,93.346L307,379-40.008,198.219s75.164-.2,145.357-8.008C164.656,183.615,220.6,169.2,222.737,169.309Z" transform="translate(677 189)" fill="#0f9653"/>
    <path id="Caminho_6" data-name="Caminho 6" d="M13.763,161.112c4.663.243,232.348,129.065,232.348,129.065L187.9,317.427l-201.48-49.163S9.1,160.869,13.763,161.112Z" transform="translate(549 98)" fill="#12a059"/>
    <path id="christ-the-redeemer-silhouette-09630b-original" d="M276.357,313.154c-1.894,0-3.96-.344-5.51.574-2.468-3.214-7.921-5.682-11.078-7.921-8.036-5.855-22.5-2.066-32.659-3.329-1.894-.23-6.773-.8-8.093.746-1.894,2.238.689,5.51,3.042,6.371-2.583.918-10.5.057-15.1.517-4.19.344-9.93-1.378-11.594,1.091-.344.517-.344,1.722,1.148,2.64-3.042-.057-7.289.344-7.921,2.64-.8,2.812,2.009,2.985,4.936,3.329-4.534,4.19,2.238,5.8,6.256,6.256-5.4,4.707,13.546,5.223,16.358,5.682,6.888,1.148,14.292,3.731,21.639,4.3,6.773.517,15.842,2.066,22.672.517,3.559-.8,6.027-1.722,10.274-1.722,3.9,0,7.691,1.665,11.25,1.378a205.97,205.97,0,0,0,26.173,43.966c5.854,7.347,10.676,13.316,20.089,14.636,4.821.746,45.344-1.148,53.035-2.468,6.773-1.148,14.062,2.64,20.835,5.051,12.8,4.477,26.345,13.546,39.834,14.522,0,0-1.492,66.868-5.4,98.264-1.378,11.479,2.985,10.389,9.758,11.02.344,4.075-2.066,8.782-.057,12.226,1.492,2.64,6.716,6.945,6.716,6.945s-3.559,43.622-2.755,51.658c.4,3.616,1.837,15.555,6.773,15.842,0,0-14.464,260.354-16.186,263.913,4.821.4,184.819.172,190.157.172l-12-160.483c.574-1.722,8.093.23,10.1-3.157,2.64-4.534-3.616-80.012,0-82.652,4.477-3.329,4.477-5.969,5.453-9.184.689-2.239-12.053-197.619-12.053-205.712,0,0,38.169-10.5,45.057-14.12,7.117-3.731,15.038-4.3,22.9-5.51,8.437-1.32,64.572-6.6,68.992-9.356,3.042-1.837,16.875-21.926,20.146-30.019,3.559-8.782,9.184-24.394,9.585-27.493,7-2.812,24.566-1.378,45.975-5.453a100.315,100.315,0,0,0,20.089-6.2c4.133-1.722,15.842-3.559,16.014-9.241,2.411-.172,6.715-.344,8.61-2.124,1.837-1.722-.976-4.879-.976-4.879s3.616-.689,4.707-2.066c1.378-1.837,3.386-3.9.344-5.682-2.411-1.378-3.387-.057-6.888-.4.574-1.32.057-1.722-.4-3.042-3.559-.976-9.413,1.263-13.144,1.837-4.477.689-8.323,1.894-13.775,1.837,1.148-1.263,2.813-5.223,1.091-6.716-1.55-1.263-3.961.517-5.682.976-4.879,1.32-9.069,1.55-14.407,2.009-9.987.8-18.252,4.3-27.034,8.323-2.755,4.936-8.495,7-13.89,7.519a4.852,4.852,0,0,0,.517-2.239h.172c-1.263-.918-12.226,1.378-14.062,2.3-12.627,5.8-33.118,5.51-43.622,5.51-5.281,0-10.389.574-15.842.574a80.888,80.888,0,0,0-17.277,2.468c-4.936,1.492-3.788,2.411-9.241,1.837-4.879-.517-9.356-1.32-14.522-1.722-10.274-.8-20.663-4.362-30.306-7-8.667-2.411-17.793-5.8-26.632-8.839-8.954-3.042-47.7-4.362-47.7-4.362s-.4-2.87-.8-8.437c-.746-10.1.057-20.146-.746-30.191-.4-4.936-.517-24.279-1.263-29.1-1.492-8.954-3.214-16.186-8.323-24.049-2.468-3.788-12.226-9.528-23.246-9.528-7.749,0-16.186,4.821-21.237,11.594-4.879,6.6-6.256,18.539-6.888,26.288-1.664,21.294-3.157,41.326-6.6,61.874,0,0-13.144,3.96-18.6,3.96-21.409-.23-60.726,9.241-64.687,9.987-5.051.918-10.389-.574-15.21-1.32-4.707-.746-18.539,12.627-38.571,12.168-9.758-.23-57.34,3.788-66.351.918-9.184-2.87-11.02.8-19.974-2.583-.8.8-.918.23-.689,1.378Z" transform="translate(15.306 69.114)" fill="#f5e40d"/>
    <path id="Caminho_3" data-name="Caminho 3" d="M0,0C4.663.243,362.09,184.149,362.09,184.149l-49.144,80.709L0,113.676S-4.663-.243,0,0Z" transform="translate(626 773)" fill="#05914b"/>
  </g>
</svg>
